<svg xmlns="http://www.w3.org/2000/svg"  viewBox="0 0 100 100" width="100px" height="100px"><path fill="#c7ede6" d="M87.215,56.71C88.35,54.555,89,52.105,89,49.5c0-6.621-4.159-12.257-10.001-14.478 C78.999,35.015,79,35.008,79,35c0-11.598-9.402-21-21-21c-9.784,0-17.981,6.701-20.313,15.757C36.211,29.272,34.638,29,33,29 c-7.692,0-14.023,5.793-14.89,13.252C12.906,43.353,9,47.969,9,53.5C9,59.851,14.149,65,20.5,65c0.177,0,0.352-0.012,0.526-0.022 C21.022,65.153,21,65.324,21,65.5C21,76.822,30.178,86,41.5,86c6.437,0,12.175-2.972,15.934-7.614C59.612,80.611,62.64,82,66,82 c4.65,0,8.674-2.65,10.666-6.518C77.718,75.817,78.837,76,80,76c6.075,0,11-4.925,11-11C91,61.689,89.53,58.727,87.215,56.71z"/><path fill="#fff" d="M17.405,59H7.5C7.224,59,7,58.776,7,58.5S7.224,58,7.5,58h9.905c0.276,0,0.5,0.224,0.5,0.5 S17.682,59,17.405,59z"/><path fill="#fff" d="M20.5,59h-1c-0.276,0-0.5-0.224-0.5-0.5s0.224-0.5,0.5-0.5h1c0.276,0,0.5,0.224,0.5,0.5 S20.777,59,20.5,59z"/><path fill="#fff" d="M25.491,61H16.5c-0.276,0-0.5-0.224-0.5-0.5s0.224-0.5,0.5-0.5h8.991c0.276,0,0.5,0.224,0.5,0.5 S25.767,61,25.491,61z"/><path fill="#fff" d="M14.5,61h-1c-0.276,0-0.5-0.224-0.5-0.5s0.224-0.5,0.5-0.5h1c0.276,0,0.5,0.224,0.5,0.5 S14.777,61,14.5,61z"/><path fill="#fff" d="M11.5,61h-2C9.224,61,9,60.776,9,60.5S9.224,60,9.5,60h2c0.276,0,0.5,0.224,0.5,0.5 S11.777,61,11.5,61z"/><path fill="#fff" d="M17.5,63h-2c-0.276,0-0.5-0.224-0.5-0.5s0.224-0.5,0.5-0.5h2c0.276,0,0.5,0.224,0.5,0.5 S17.776,63,17.5,63z"/><path fill="#fff" d="M20.5,54c-0.177,0-0.823,0-1,0c-0.276,0-0.5,0.224-0.5,0.5s0.224,0.5,0.5,0.5c0.177,0,0.823,0,1,0 c0.276,0,0.5-0.224,0.5-0.5S20.776,54,20.5,54z"/><path fill="#fff" d="M20.5,56c-0.177,0-4.823,0-5,0c-0.276,0-0.5,0.224-0.5,0.5s0.224,0.5,0.5,0.5c0.177,0,4.823,0,5,0 c0.276,0,0.5-0.224,0.5-0.5S20.776,56,20.5,56z"/><path fill="#fff" d="M25.5,58c-0.177,0-2.823,0-3,0c-0.276,0-0.5,0.224-0.5,0.5s0.224,0.5,0.5,0.5c0.177,0,2.823,0,3,0 c0.276,0,0.5-0.224,0.5-0.5S25.776,58,25.5,58z"/><path fill="#fff" d="M70.5,22h-10c-0.276,0-0.5-0.224-0.5-0.5s0.224-0.5,0.5-0.5h10c0.276,0,0.5,0.224,0.5,0.5 S70.776,22,70.5,22z"/><path fill="#fff" d="M74.5,22h-2c-0.276,0-0.5-0.224-0.5-0.5s0.224-0.5,0.5-0.5h2c0.276,0,0.5,0.224,0.5,0.5 S74.776,22,74.5,22z"/><path fill="#fff" d="M79.5,24h-10c-0.276,0-0.5-0.224-0.5-0.5s0.224-0.5,0.5-0.5h10c0.276,0,0.5,0.224,0.5,0.5 S79.777,24,79.5,24z"/><path fill="#fff" d="M67.5,24h-1c-0.276,0-0.5-0.224-0.5-0.5s0.224-0.5,0.5-0.5h1c0.276,0,0.5,0.224,0.5,0.5 S67.776,24,67.5,24z"/><path fill="#fff" d="M64.47,24H62.5c-0.276,0-0.5-0.224-0.5-0.5s0.224-0.5,0.5-0.5h1.97c0.276,0,0.5,0.224,0.5,0.5 S64.746,24,64.47,24z"/><path fill="#fff" d="M73.5,20h-5c-0.276,0-0.5-0.224-0.5-0.5s0.224-0.5,0.5-0.5h5c0.276,0,0.5,0.224,0.5,0.5 S73.777,20,73.5,20z"/><path fill="#fff" d="M70.5,26h-2c-0.276,0-0.5-0.224-0.5-0.5s0.224-0.5,0.5-0.5h2c0.276,0,0.5,0.224,0.5,0.5 S70.776,26,70.5,26z"/><g><path fill="#fdfcef" d="M31.5,37.5c0,0,1.567,0,3.5,0s3.5-1.567,3.5-3.5c0-1.781-1.335-3.234-3.055-3.455 C35.473,30.366,35.5,30.187,35.5,30c0-1.933-1.567-3.5-3.5-3.5c-1.032,0-1.95,0.455-2.59,1.165 c-0.384-1.808-1.987-3.165-3.91-3.165c-2.209,0-4,1.791-4,4c0,0.191,0.03,0.374,0.056,0.558C21.128,28.714,20.592,28.5,20,28.5 c-1.228,0-2.245,0.887-2.455,2.055C17.366,30.527,17.187,30.5,17,30.5c-1.933,0-3.5,1.567-3.5,3.5s1.567,3.5,3.5,3.5s7.5,0,7.5,0 V38h7V37.5z"/><path fill="#472b29" d="M33.25,33C33.112,33,33,32.888,33,32.75c0-1.223,0.995-2.218,2.218-2.218 c0.034,0.009,0.737-0.001,1.244,0.136c0.133,0.036,0.212,0.173,0.176,0.306c-0.036,0.134-0.173,0.213-0.306,0.176 c-0.444-0.12-1.1-0.12-1.113-0.118c-0.948,0-1.719,0.771-1.719,1.718C33.5,32.888,33.388,33,33.25,33z"/><circle cx="26.5" cy="37.5" r=".5" fill="#472b29"/><path fill="#472b29" d="M35,38h-3.5c-0.276,0-0.5-0.224-0.5-0.5s0.224-0.5,0.5-0.5H35c1.654,0,3-1.346,3-3 c0-1.496-1.125-2.768-2.618-2.959c-0.134-0.018-0.255-0.088-0.336-0.196s-0.115-0.244-0.094-0.377C34.975,30.314,35,30.16,35,30 c0-1.654-1.346-3-3-3c-0.85,0-1.638,0.355-2.219,1c-0.125,0.139-0.321,0.198-0.5,0.148c-0.182-0.049-0.321-0.195-0.36-0.379 C28.58,26.165,27.141,25,25.5,25c-1.93,0-3.5,1.57-3.5,3.5c0,0.143,0.021,0.28,0.041,0.418c0.029,0.203-0.063,0.438-0.242,0.54 s-0.396,0.118-0.556-0.01C20.878,29.155,20.449,29,20,29c-0.966,0-1.792,0.691-1.963,1.644c-0.048,0.267-0.296,0.446-0.569,0.405 C17.314,31.025,17.16,31,17,31c-1.654,0-3,1.346-3,3s1.346,3,3,3h7.5c0.276,0,0.5,0.224,0.5,0.5S24.776,38,24.5,38H17 c-2.206,0-4-1.794-4-4s1.794-4,4-4c0.059,0,0.116,0.002,0.174,0.006C17.588,28.82,18.711,28,20,28c0.349,0,0.689,0.061,1.011,0.18 C21.176,25.847,23.126,24,25.5,24c1.831,0,3.466,1.127,4.153,2.774C30.333,26.276,31.155,26,32,26c2.206,0,4,1.794,4,4 c0,0.048-0.001,0.095-0.004,0.142C37.739,30.59,39,32.169,39,34C39,36.206,37.206,38,35,38z"/><path fill="#472b29" d="M29.5,37c-0.159,0-0.841,0-1,0c-0.276,0-0.5,0.224-0.5,0.5s0.224,0.5,0.5,0.5c0.159,0,0.841,0,1,0 c0.276,0,0.5-0.224,0.5-0.5S29.776,37,29.5,37z"/></g><g opacity=".29"><path fill="#2100c4" d="M40.01,64.463c-0.06,0.02-0.12,0.04-0.18,0.06c-0.07-0.41-0.15-0.83-0.22-1.27 C39.73,63.673,39.87,64.073,40.01,64.463z"/></g><g><path fill="#8889b9" d="M78.581,52.822c-3.41,11.28-9.06,8.24-9.92,7.43c0,0,2.4-3.71,2.4-7.71s-1.93-8.18-4.93-11.18 s-6.67-5.33-4.25-7.84c1.96-2.03,5.77-1.45,11.17,4.85C78.581,44.812,78.581,51.322,78.581,52.822z"/><path fill="#2100c4" d="M63.955,54.392c-0.16-0.04-0.31-0.04-0.46-0.02C63.645,54.342,63.795,54.342,63.955,54.392z" opacity=".29"/><path fill="#fbcd59" d="M41.698,61.262c0.13,1.04,0.36,2.52,0.84,4.19c-0.06,0.03-0.11,0.06-0.17,0.08 c-3.54,1.45-9.98,2.6-14.97-3.17l-0.01-0.01c-0.12-0.35-0.23-0.71-0.33-1.07c-0.08-0.28-0.15-0.57-0.22-0.86 c-0.06-0.26-0.11-0.52-0.16-0.78c-0.07-0.38-0.13-0.77-0.18-1.16c-0.02-0.15-0.04-0.3-0.05-0.46c-0.01-0.13-0.03-0.26-0.03-0.4 c-0.02-0.18-0.03-0.36-0.04-0.54c-0.01-0.29-0.02-0.59-0.02-0.88c0-13,8.29-23.73,13.84-23.66c1.56,0.02,2.8,1.01,3.46,2.67 c0.83,2.08,0.29,8.01-1.55,15.06c-0.08,0.32-0.16,0.64-0.23,0.96C41.148,54.692,41.298,58.152,41.698,61.262z"/><path fill="#2100c4" d="M52.505,73.752c-0.17,0.15-0.35,0.3-0.52,0.44l0.01-0.02 C52.165,74.032,52.335,73.892,52.505,73.752z" opacity=".29"/><path fill="#efa21b" d="M55.36,71.185c-0.27,0.35-0.55,0.7-0.85,1.04c-0.29,0.34-0.61,0.67-0.94,0.97 c-0.14,0.14-0.28,0.28-0.43,0.4c-0.02,0.02-0.04,0.04-0.06,0.06c-0.17,0.14-0.34,0.28-0.51,0.42l-0.01,0.02h-0.01 c-0.35,0.28-0.71,0.54-1.09,0.78c-0.19,0.12-0.38,0.23-0.58,0.34s-0.4,0.21-0.6,0.31c-0.22,0.11-0.44,0.21-0.67,0.29 c-0.38,0.14-0.77,0.27-1.17,0.36c-0.7,0.18-1.44,0.27-2.21,0.27c-0.23,0-0.47-0.01-0.7-0.02c-0.24-0.01-0.47-0.02-0.71-0.05 c-0.27-0.02-0.55-0.06-0.82-0.1c-0.2-0.03-0.4-0.06-0.6-0.1c-0.16-0.03-0.32-0.06-0.48-0.09c-0.15-0.03-0.3-0.07-0.45-0.1 c-0.64-0.16-1.28-0.35-1.92-0.58c-0.24-0.08-0.48-0.17-0.71-0.27c-2.28-0.92-4.49-2.29-6.43-4.02c-0.18-0.16-0.36-0.32-0.53-0.49 c-0.35-0.33-0.69-0.67-1.01-1.02c-0.16-0.17-0.31-0.34-0.46-0.51c-0.17-0.2-0.33-0.39-0.49-0.59c-0.15-0.19-0.3-0.38-0.45-0.57 c-0.47-0.63-0.91-1.28-1.31-1.95c-0.22-0.37-0.43-0.76-0.63-1.15c-0.37-0.77-0.905-1.674-1.235-2.534 c-0.02-0.04-0.04-0.09-0.05-0.13c4.99,5.77,11.615,4.714,15.155,3.264c0.06-0.02,0.11-0.05,0.17-0.08 c0.01,0.01,0.01,0.01,0.01,0.02C45.36,74.865,52.55,73.505,55.36,71.185z"/><path fill="#ee3e54" d="M66.012,55.68c-0.08-0.12-0.16-0.24-0.24-0.34c-0.16-0.22-0.32-0.4-0.47-0.54 c-0.09-0.09-0.19-0.17-0.28-0.23c-0.05-0.03-0.09-0.07-0.14-0.09c-0.05-0.03-0.1-0.06-0.14-0.07c-0.09-0.05-0.18-0.08-0.27-0.09 c-0.16-0.05-0.31-0.05-0.46-0.02c-0.07,0.02-0.14,0.03-0.2,0.05c-0.13,0.04-0.26,0.1-0.38,0.19c-0.13,0.08-0.26,0.18-0.38,0.3 c-0.06,0.05-0.13,0.11-0.18,0.18c-0.07,0.07-0.14,0.15-0.21,0.23c-0.14,0.17-0.27,0.35-0.4,0.55c-0.34,0.49-0.66,1.07-0.97,1.69 c-0.42,0.85-0.75,1.59-1,2.24c-0.1,0.27-0.19,0.52-0.27,0.76c-0.1,0.29-0.19,0.58-0.27,0.85c-0.08,0.27-0.14,0.53-0.2,0.78 c-0.1,0.4-0.18,0.77-0.27,1.14c-0.39,1.65-1.662,5.004-3.922,7.924c-2.81,2.32-10.058,3.706-12.838-5.784 c0-0.01,0-0.01-0.01-0.02c3.57-1.65,9.93-10.67,13.59-13.11c3-2,6.3-2,8.07,0.2C64.752,53.19,65.262,53.87,66.012,55.68z"/><path fill="#2100c4" d="M63.955,54.392c-0.16-0.04-0.31-0.04-0.46-0.02C63.645,54.342,63.795,54.342,63.955,54.392z" opacity=".29"/><path fill="#ea4989" d="M78.387,52.44c0,8.64-4.84,17.661-10.3,17.661c-4,0-6.806-1.955-8.806-6.615 c-0.352-0.844,0.087-2.186,0.167-2.456c0.08-0.27,0.17-0.56,0.27-0.85c0.08-0.24,0.17-0.49,0.27-0.76c0.25-0.65,0.58-1.39,1-2.24 c0.31-0.62,0.63-1.2,0.97-1.69c0.13-0.2,0.26-0.38,0.4-0.55c0.07-0.08,0.14-0.16,0.21-0.23c0.06-0.07,0.12-0.13,0.18-0.18 c0.12-0.12,0.25-0.22,0.38-0.3c0.12-0.09,0.25-0.15,0.38-0.19c0.06-0.02,0.13-0.03,0.2-0.05c0.15-0.02,0.3-0.02,0.46,0.02 c0.09,0.02,0.18,0.05,0.27,0.09c0.04,0.01,0.09,0.04,0.14,0.07c0.05,0.02,0.09,0.06,0.14,0.09c0.09,0.06,0.19,0.14,0.28,0.23 c0.15,0.14,0.31,0.32,0.47,0.54c0.07,0.1,0.15,0.22,0.23,0.34c0.69,1.55,1.316,3.384,2.766,4.764 C69.323,60.944,74.977,63.72,78.387,52.44z"/><path fill="#472b29" d="M77.273,56.144c-0.053,0-0.107-0.011-0.158-0.035c-0.188-0.088-0.269-0.311-0.181-0.498 c0.5-1.071,0.928-2.318,1.273-3.707c0.05-0.201,0.257-0.318,0.454-0.273c0.201,0.051,0.324,0.254,0.273,0.455 c-0.356,1.435-0.801,2.728-1.321,3.842C77.549,56.063,77.414,56.144,77.273,56.144z"/><path fill="#472b29" d="M75.411,59.04c-0.09,0-0.18-0.032-0.252-0.097c-0.153-0.14-0.165-0.377-0.026-0.53 c0.318-0.352,0.625-0.751,0.911-1.189c0.113-0.174,0.345-0.223,0.519-0.109c0.173,0.113,0.222,0.346,0.109,0.52 c-0.308,0.471-0.638,0.902-0.983,1.283C75.615,58.998,75.513,59.04,75.411,59.04z"/><path fill="#472b29" d="M70.836,61.266c-1.263,0-2.267-0.433-2.657-0.888c-0.135-0.157-0.117-0.394,0.041-0.528 c0.158-0.136,0.394-0.117,0.529,0.04c0.397,0.463,2.41,1.154,4.59-0.031c0.182-0.1,0.41-0.031,0.509,0.149 c0.099,0.183,0.032,0.41-0.15,0.509C72.697,61.061,71.705,61.266,70.836,61.266z"/><path fill="#472b29" d="M65.468,55.404c-0.116,0-0.23-0.054-0.304-0.154c-0.138-0.189-0.281-0.354-0.423-0.487 c-0.08-0.079-0.159-0.144-0.23-0.19l0.11-0.38l-0.201,0.316l-0.097-0.054c-0.105-0.043-0.171-0.065-0.234-0.079 c-0.11-0.027-0.21-0.032-0.332-0.015L63.69,54.38c-0.173,0.049-0.262,0.093-0.337,0.149c-0.166,0.126-0.4,0.091-0.525-0.074 c-0.125-0.166-0.091-0.401,0.075-0.525c0.145-0.108,0.311-0.192,0.495-0.249c0.037-0.012,0.083-0.023,0.132-0.033 c0.019-0.006,0.111-0.027,0.13-0.03c0.218-0.028,0.408-0.019,0.599,0.028c0.101,0.022,0.216,0.061,0.331,0.111 c0.033,0.002,0.113,0.05,0.183,0.093c0.019,0.001,0.076,0.043,0.114,0.071c0.146,0.099,0.268,0.194,0.376,0.303 c0.168,0.157,0.342,0.356,0.508,0.585c0.122,0.167,0.085,0.401-0.083,0.523C65.622,55.381,65.545,55.404,65.468,55.404z"/><path fill="#472b29" d="M61.364,56.834c-0.061,0-0.123-0.015-0.18-0.047c-0.182-0.1-0.248-0.327-0.148-0.509 c0.199-0.36,0.402-0.698,0.614-1.003c0.118-0.169,0.351-0.212,0.522-0.095c0.17,0.118,0.212,0.353,0.094,0.522 c-0.198,0.285-0.388,0.6-0.573,0.937C61.625,56.764,61.496,56.834,61.364,56.834z"/><path fill="#472b29" d="M59.281,63.861c-0.147,0-0.286-0.087-0.346-0.23c-0.385-0.927,0.009-2.232,0.139-2.661 c0.096-0.321,0.187-0.617,0.289-0.912c0.08-0.24,0.171-0.494,0.273-0.769c0.072-0.193,0.289-0.292,0.482-0.221 c0.194,0.072,0.293,0.288,0.221,0.482c-0.099,0.265-0.187,0.511-0.266,0.747c-0.1,0.289-0.188,0.573-0.267,0.838 c-0.384,1.272-0.309,1.897-0.18,2.206c0.08,0.191-0.011,0.411-0.202,0.491C59.378,63.853,59.329,63.861,59.281,63.861z"/><path fill="#472b29" d="M51.407,73.196c-0.185,0-0.347-0.138-0.371-0.326c-0.027-0.205,0.117-0.394,0.323-0.421 c1.401-0.185,2.807-0.766,3.763-1.554c0.159-0.132,0.395-0.109,0.528,0.051c0.132,0.159,0.109,0.396-0.05,0.527 c-1.06,0.875-2.608,1.518-4.143,1.72C51.44,73.195,51.423,73.196,51.407,73.196z"/><path fill="#472b29" d="M47.571,72.725c-0.048,0-0.096-0.009-0.143-0.028c-0.604-0.249-1.18-0.583-1.714-0.992 c-0.164-0.127-0.195-0.362-0.069-0.526c0.126-0.163,0.361-0.194,0.526-0.069c0.481,0.37,1,0.671,1.543,0.895 c0.191,0.079,0.283,0.298,0.204,0.489C47.858,72.638,47.718,72.725,47.571,72.725z"/><path fill="#472b29" d="M44.212,69.964c-0.117,0-0.232-0.055-0.305-0.156c-0.827-1.153-1.497-2.594-1.991-4.28 c-0.058-0.199,0.056-0.407,0.254-0.466c0.201-0.055,0.407,0.058,0.465,0.255c0.47,1.605,1.103,2.97,1.881,4.054 c0.121,0.169,0.082,0.402-0.086,0.523C44.363,69.941,44.287,69.964,44.212,69.964z"/><g><path fill="#472b29" d="M46.146,77c-4.61,0-9.68-2.22-13.563-5.938c-4.256-4.076-6.6-9.365-6.6-14.893 c0-9.625,4.327-17.314,8.032-20.976c2.1-2.074,4.287-3.175,6.151-3.184c1.688,0.021,3.073,1.085,3.798,2.921 c0.735,1.859,0.272,6.393-1.456,14.265c-1.207,5.497-0.963,12.83,0.042,15.881c1.967-0.827,4.72-4.005,7.388-7.084 c2.19-2.528,4.26-4.917,5.896-6.017c3.192-2.147,6.629-2.036,8.551,0.279c0.678,0.815,1.106,1.837,1.56,2.919 c0.579,1.38,1.229,2.932,2.544,4.432c0.63-1.053,2.214-4.008,2.214-7.111c0-3.837-1.799-7.94-4.812-10.978 c-0.54-0.544-1.102-1.066-1.645-1.571c-1.845-1.715-3.438-3.196-3.484-4.802c-0.021-0.712,0.277-1.396,0.886-2.03 c0.762-0.796,1.753-1.183,2.89-1.168c2.45,0.071,5.496,2.166,8.809,6.058c3.669,4.311,5.608,9.417,5.608,14.769 c0,9.101-5.282,17.704-10.869,17.704c-3.917,0-6.803-1.987-8.797-6.067C57.891,68.657,53.604,77,46.146,77z M40.111,32.76 c-1.655,0-3.63,1.052-5.569,2.967c-3.603,3.56-7.809,11.049-7.809,20.442c0,9.286,8.48,20.081,19.413,20.081 c7.566,0,11.816-9.628,12.708-13.001c0.041-0.155,0.176-0.267,0.335-0.278c0.164-0.01,0.309,0.079,0.372,0.228 c1.896,4.453,4.605,6.527,8.525,6.527c5.107,0,10.119-8.397,10.119-16.954c0-5.171-1.877-10.109-5.43-14.282 c-4.007-4.707-6.704-5.749-8.26-5.794c-0.926-0.013-1.706,0.288-2.326,0.936c-0.471,0.492-0.693,0.98-0.678,1.491 c0.038,1.291,1.596,2.74,3.245,4.273c0.551,0.513,1.12,1.042,1.667,1.594c3.149,3.174,5.03,7.475,5.03,11.505 c0,4.091-2.493,7.784-2.599,7.939c-0.064,0.093-0.167,0.152-0.279,0.162c-0.112,0.015-0.224-0.033-0.302-0.115 c-1.634-1.709-2.371-3.467-3.021-5.017c-0.45-1.073-0.839-2-1.445-2.73c-1.662-2.001-4.7-2.056-7.556-0.135 c-1.553,1.043-3.591,3.396-5.748,5.885c-2.892,3.338-5.882,6.79-8.075,7.432c-0.188,0.051-0.383-0.043-0.455-0.223 c-1.296-3.291-1.391-11.23-0.2-16.657c1.648-7.509,2.15-12.161,1.491-13.829c-0.617-1.561-1.721-2.43-3.11-2.446l0,0 C40.142,32.76,40.127,32.76,40.111,32.76z"/></g></g><g><path fill="#fdfcef" d="M68.125,82.5c0,0-3.64,0-6.125,0s-4.5-2.015-4.5-4.5c0-2.333,1.782-4.229,4.055-4.455 C61.533,73.364,61.5,73.187,61.5,73c0-2.485,2.015-4.5,4.5-4.5c1.438,0,2.703,0.686,3.527,1.736 C69.667,67.6,71.829,65.5,74.5,65.5c2.761,0,5,2.239,5,5c0,0.446-0.077,0.87-0.187,1.282c0.642-0.777,1.6-1.282,2.687-1.282 c1.781,0,3.234,1.335,3.455,3.055C85.636,73.533,85.813,73.5,86,73.5c2.485,0,4.5,2.015,4.5,4.5s-2.015,4.5-4.5,4.5s-9.5,0-9.5,0 h-5.375V83h-3V82.5z"/><path fill="#472b29" d="M74.5,65c3.033,0,5.5,2.467,5.5,5.5c0,0.016,0,0.031,0,0.047C80.602,70.192,81.29,70,82,70 c1.831,0,3.411,1.261,3.858,3.005C85.905,73.002,85.952,73,86,73c2.757,0,5,2.243,5,5s-2.243,5-5,5H71.125 c-0.276,0-0.5-0.224-0.5-0.5s0.224-0.5,0.5-0.5H86c2.206,0,4-1.794,4-4s-1.794-4-4-4c-0.117,0-0.23,0.017-0.343,0.032 l-0.141,0.019c-0.021,0.003-0.041,0.004-0.062,0.004c-0.246,0-0.462-0.185-0.495-0.437C84.768,72.125,83.496,71,82,71 c-0.885,0-1.723,0.401-2.301,1.1c-0.098,0.118-0.241,0.182-0.386,0.182c-0.078,0-0.156-0.018-0.228-0.056 c-0.209-0.107-0.314-0.346-0.254-0.573C78.946,71.218,79,70.852,79,70.5c0-2.481-2.019-4.5-4.5-4.5 c-2.381,0-4.347,1.872-4.474,4.263c-0.011,0.208-0.15,0.387-0.349,0.45c-0.05,0.016-0.101,0.024-0.152,0.024 c-0.15,0-0.296-0.069-0.392-0.192C68.362,69.563,67.221,69,66,69c-2.206,0-4,1.794-4,4c0,0.117,0.017,0.23,0.032,0.343 l0.019,0.141c0.016,0.134-0.022,0.268-0.106,0.373s-0.207,0.172-0.34,0.185C59.549,74.247,58,75.949,58,78c0,2.206,1.794,4,4,4 h6.125c0.276,0,0.5,0.224,0.5,0.5s-0.224,0.5-0.5,0.5H62c-2.757,0-5-2.243-5-5c0-2.397,1.689-4.413,4.003-4.877 C61.001,73.082,61,73.041,61,73c0-2.757,2.243-5,5-5c1.176,0,2.293,0.416,3.183,1.164C69.781,66.76,71.945,65,74.5,65L74.5,65z"/><path fill="#472b29" d="M76,72c1.403,0,2.609,0.999,2.913,2.341C79.28,74.119,79.699,74,80.125,74 c1.202,0,2.198,0.897,2.353,2.068C82.681,76.022,82.874,76,83.063,76c1.529,0,2.811,1.2,2.918,2.732 C85.99,78.87,85.886,78.99,85.749,79c-0.006,0-0.012,0-0.018,0c-0.13,0-0.24-0.101-0.249-0.232 c-0.089-1.271-1.151-2.268-2.419-2.268c-0.229,0-0.47,0.042-0.738,0.127c-0.022,0.007-0.045,0.01-0.067,0.01 c-0.055,0-0.11-0.02-0.156-0.054C82.038,76.537,82,76.455,82,76.375c0-1.034-0.841-1.875-1.875-1.875 c-0.447,0-0.885,0.168-1.231,0.473c-0.047,0.041-0.106,0.063-0.165,0.063c-0.032,0-0.063-0.006-0.093-0.019 c-0.088-0.035-0.148-0.117-0.155-0.212C78.377,73.512,77.288,72.5,76,72.5c-0.208,0-0.425,0.034-0.682,0.107 c-0.023,0.007-0.047,0.01-0.07,0.01c-0.109,0-0.207-0.073-0.239-0.182c-0.038-0.133,0.039-0.271,0.172-0.309 C75.483,72.04,75.744,72,76,72L76,72z"/><path fill="#472b29" d="M62.117,73.5c1.326,0,2.508,0.897,2.874,2.182c0.038,0.133-0.039,0.271-0.172,0.309 C64.795,75.997,64.772,76,64.75,76c-0.109,0-0.209-0.072-0.24-0.182C64.205,74.748,63.221,74,62.117,74 c-0.117,0-0.23,0.014-0.342,0.029c-0.012,0.002-0.023,0.003-0.035,0.003c-0.121,0-0.229-0.092-0.246-0.217 c-0.019-0.137,0.077-0.263,0.214-0.281C61.842,73.516,61.978,73.5,62.117,73.5L62.117,73.5z"/></g></svg>